<svg xmlns="http://www.w3.org/2000/svg" width="512" height="512" viewBox="0 0 512 512"><g transform="translate(256 272) scale(1)" fill="none" stroke="#08070A" stroke-width="8" stroke-linecap="round" stroke-linejoin="round"><path d="M0 -12V-130M-26 -130H26M-26 -130v-16M26 -130v-16M-20 -76H20" transform="rotate(0)"></path><path d="M0 -12V-112M0 -112a9 9 0 1 0 0 -18a9 9 0 1 0 0 18M-18 -76H18" transform="rotate(45)"></path><path d="M0 -12V-112M0 -112a9 9 0 1 0 0 -18a9 9 0 1 0 0 18M-18 -76H18" transform="rotate(-45)"></path><path d="M0 -12V-125M-22 -125H22M-22 -125v-14M22 -125v-14" transform="rotate(90)"></path><path d="M0 -12V-125M-22 -125H22M-22 -125v-14M22 -125v-14" transform="rotate(-90)"></path><path d="M0 -12V-150M-20 -150H20" transform="rotate(135)"></path><path d="M0 -12V-150M-20 -150H20" transform="rotate(-135)"></path><path d="M72 0L100 36L72 72L44 36ZM-72 0L-44 36L-72 72L-100 36ZM0 12V130M-16 96H16M-76 130H76M106 106L76 130M-106 106L-76 130M-60 130v36M-36 130v36M-12 130v36M12 130v36M36 130v36M60 130v36M72 72v14M-72 72v14"></path><circle r="12"></circle><g transform="translate(0 -20)"><path d="M-6 -20V20M-6 -8L8 0L-6 8" transform="rotate(-122) translate(0 -165) scale(0.68)" stroke-width="11.76"></path><path d="M0 -20V20M-8 -8L8 8" transform="rotate(-101.66666666666667) translate(0 -165) scale(0.68)" stroke-width="11.76"></path><path d="M0 20V-4M-10 -18L0 -4L10 -18" transform="rotate(-81.33333333333334) translate(0 -165) scale(0.68)" stroke-width="11.76"></path><path d="M-6 -20V20M-6 -20L8 -10L-6 0" transform="rotate(-61) translate(0 -165) scale(0.68)" stroke-width="11.76"></path><path d="M-4 -20V20M-4 -20L8 -8" transform="rotate(-40.66666666666667) translate(0 -165) scale(0.68)" stroke-width="11.76"></path><path d="M0 -20L10 -8L0 4L-10 -8ZM0 4L-10 20M0 4L10 20" transform="rotate(-20.33333333333333) translate(0 -165) scale(0.68)" stroke-width="11.76"></path><path d="M6 -20L-6 0L6 20" transform="rotate(0) translate(0 -165) scale(0.68)" stroke-width="11.76"></path><path d="M0 -20V20M-10 -8L0 -20L10 -8" transform="rotate(20.333333333333343) translate(0 -165) scale(0.68)" stroke-width="11.76"></path><path d="M6 -20L-6 -6L6 6L-6 20" transform="rotate(40.66666666666666) translate(0 -165) scale(0.68)" stroke-width="11.76"></path><path d="M-10 -16V16L10 -16V16Z" transform="rotate(61) translate(0 -165) scale(0.68)" stroke-width="11.76"></path><path d="M-10 -20V20M10 -20V20M-10 -20L0 -8L10 -20" transform="rotate(81.33333333333334) translate(0 -165) scale(0.68)" stroke-width="11.76"></path><path d="M-6 -20V20M-6 -20L8 -12L-6 -2L8 20" transform="rotate(101.66666666666666) translate(0 -165) scale(0.68)" stroke-width="11.76"></path><path d="M0 -20V20" transform="rotate(122) translate(0 -165) scale(0.68)" stroke-width="11.76"></path></g></g></svg>